<?xml version="1.0" encoding="UTF-8"?>
<svg xmlns="http://www.w3.org/2000/svg" xmlns:xlink="http://www.w3.org/1999/xlink" width="1281.73pt" height="1288.64pt" viewBox="0 0 1281.73 1288.64" version="1.1">
<defs>
<clipPath id="clip1">
  <path d="M 878 0 L 1281.730469 0 L 1281.730469 403 L 878 403 Z M 878 0 "/>
</clipPath>
<clipPath id="clip2">
  <path d="M 0 1125 L 160 1125 L 160 1288.640625 L 0 1288.640625 Z M 0 1125 "/>
</clipPath>
</defs>
<g id="surface1">
<path style=" stroke:none;fill-rule:nonzero;fill:rgb(100%,100%,100%);fill-opacity:1;" d="M 199.09375 1098.460938 L 238.714844 725.027344 L 317.957031 725.027344 L 317.957031 563.582031 L 397.195313 563.582031 L 397.195313 484.34375 L 476.4375 484.34375 L 476.4375 402.132813 L 555.679688 402.132813 L 557.164063 322.894531 L 634.921875 322.894531 L 636.878906 240.691406 L 718.125 234.738281 L 718.125 161.449219 L 754.773438 161.449219 L 920.191406 121.828125 L 920.191406 362.515625 L 1080.410156 362.515625 L 1081.640625 566.539063 L 598.273438 1012.414063 "/>
<path style=" stroke:none;fill-rule:nonzero;fill:rgb(93.699646%,79.199219%,41.19873%);fill-opacity:1;" d="M 317.460938 964.734375 L 399.675781 964.734375 L 399.675781 885.496094 L 317.460938 885.496094 Z M 317.460938 964.734375 "/>
<path style=" stroke:none;fill-rule:nonzero;fill:rgb(93.699646%,79.199219%,41.19873%);fill-opacity:1;" d="M 399.671875 885.496094 L 478.914063 885.496094 L 478.914063 806.257813 L 399.671875 806.257813 Z M 399.671875 885.496094 "/>
<path style=" stroke:none;fill-rule:nonzero;fill:rgb(93.699646%,79.199219%,41.19873%);fill-opacity:1;" d="M 478.914063 806.742188 L 558.15625 806.742188 L 558.15625 724.046875 L 478.914063 724.046875 Z M 478.914063 806.742188 "/>
<path style=" stroke:none;fill-rule:nonzero;fill:rgb(93.699646%,79.199219%,41.19873%);fill-opacity:1;" d="M 558.15625 724.050781 L 637.398438 724.050781 L 637.398438 644.8125 L 558.15625 644.8125 Z M 558.15625 724.050781 "/>
<path style=" stroke:none;fill-rule:nonzero;fill:rgb(93.699646%,79.199219%,41.19873%);fill-opacity:1;" d="M 637.398438 644.796875 L 720.601563 644.796875 L 720.601563 562.601563 L 637.398438 562.601563 Z M 637.398438 644.796875 "/>
<path style=" stroke:none;fill-rule:nonzero;fill:rgb(93.699646%,79.199219%,41.19873%);fill-opacity:1;" d="M 238.714844 1044.222656 L 317.957031 1044.222656 L 317.957031 964.734375 L 238.714844 964.734375 Z M 238.714844 1044.222656 "/>
<path style=" stroke:none;fill-rule:nonzero;fill:rgb(93.699646%,79.199219%,41.19873%);fill-opacity:1;" d="M 156.503906 1126.179688 L 238.714844 1126.179688 L 238.714844 1043.972656 L 156.503906 1043.972656 Z M 156.503906 1126.179688 "/>
<path style=" stroke:none;fill-rule:nonzero;fill:rgb(93.699646%,79.199219%,41.19873%);fill-opacity:1;" d="M 77.261719 1207.410156 L 159.472656 1207.410156 L 159.472656 1126.179688 L 77.261719 1126.179688 Z M 77.261719 1207.410156 "/>
<path style=" stroke:none;fill-rule:nonzero;fill:rgb(93.699646%,79.199219%,41.19873%);fill-opacity:1;" d="M 718.867188 563.578125 L 801.328125 563.578125 L 801.328125 483.347656 L 718.867188 483.347656 Z M 718.867188 563.578125 "/>
<path style=" stroke:none;fill-rule:nonzero;fill:rgb(93.699646%,79.199219%,41.19873%);fill-opacity:1;" d="M 798.355469 484.34375 L 880.570313 484.34375 L 880.570313 402.132813 L 798.355469 402.132813 Z M 798.355469 484.34375 "/>
<path style=" stroke:none;fill-rule:nonzero;fill:rgb(93.299866%,55.699158%,27.099609%);fill-opacity:1;" d="M 718.125 484.34375 L 798.355469 484.34375 L 798.355469 161.449219 L 718.125 161.449219 Z M 718.125 484.34375 "/>
<path style=" stroke:none;fill-rule:nonzero;fill:rgb(93.299866%,55.699158%,27.099609%);fill-opacity:1;" d="M 878.589844 79.238281 L 1042.371094 79.238281 L 1042.371094 159.96875 L 1121.261719 159.96875 L 1121.261719 242.679688 L 1120.761719 322.40625 L 1042.371094 322.40625 L 1042.371094 402.132813 L 878.589844 402.132813 "/>
<path style=" stroke:none;fill-rule:nonzero;fill:rgb(93.299866%,55.699158%,27.099609%);fill-opacity:1;" d="M 798.355469 563.582031 L 959.808594 563.582031 L 959.808594 484.34375 L 798.355469 484.34375 Z M 798.355469 563.582031 "/>
<path style=" stroke:none;fill-rule:nonzero;fill:rgb(77.999878%,46.699524%,23.899841%);fill-opacity:1;" d="M 959.808594 563.582031 L 1122.253906 563.582031 L 1122.253906 484.34375 L 959.808594 484.34375 Z M 959.808594 563.582031 "/>
<path style=" stroke:none;fill-rule:nonzero;fill:rgb(77.999878%,46.699524%,23.899841%);fill-opacity:1;" d="M 1041.53125 322.40625 L 1120.769531 322.40625 L 1121.261719 242.679688 L 1201.5 242.679688 L 1201.5 402.132813 L 1041.53125 402.132813 "/>
<path style=" stroke:none;fill-rule:nonzero;fill:rgb(80.39856%,80.39856%,80.39856%);fill-opacity:1;" d="M 1040.539063 484.34375 L 1122.257813 484.34375 L 1122.257813 402.132813 L 1040.539063 402.132813 Z M 1040.539063 484.34375 "/>
<path style=" stroke:none;fill-rule:nonzero;fill:rgb(80.39856%,80.39856%,80.39856%);fill-opacity:1;" d="M 959.5625 644.796875 L 1039.300781 644.796875 L 1039.300781 563.582031 L 959.5625 563.582031 Z M 959.5625 644.796875 "/>
<path style=" stroke:none;fill-rule:nonzero;fill:rgb(80.39856%,80.39856%,80.39856%);fill-opacity:1;" d="M 880.320313 725.035156 L 960.058594 725.035156 L 960.058594 643.824219 L 880.320313 643.824219 Z M 880.320313 725.035156 "/>
<path style=" stroke:none;fill-rule:nonzero;fill:rgb(80.39856%,80.39856%,80.39856%);fill-opacity:1;" d="M 801.078125 806.742188 L 880.816406 806.742188 L 880.816406 725.53125 L 801.078125 725.53125 Z M 801.078125 806.742188 "/>
<path style=" stroke:none;fill-rule:nonzero;fill:rgb(80.39856%,80.39856%,80.39856%);fill-opacity:1;" d="M 718.867188 886.984375 L 801.078125 886.984375 L 801.078125 805.773438 L 718.867188 805.773438 Z M 718.867188 886.984375 "/>
<path style=" stroke:none;fill-rule:nonzero;fill:rgb(80.39856%,80.39856%,80.39856%);fill-opacity:1;" d="M 559.640625 964.734375 L 719.585938 964.734375 L 719.585938 885.496094 L 559.640625 885.496094 Z M 559.640625 964.734375 "/>
<path style=" stroke:none;fill-rule:nonzero;fill:rgb(80.39856%,80.39856%,80.39856%);fill-opacity:1;" d="M 399.671875 1044.222656 L 559.640625 1044.222656 L 559.640625 964.734375 L 399.671875 964.734375 Z M 399.671875 1044.222656 "/>
<path style=" stroke:none;fill-rule:nonzero;fill:rgb(1.199341%,1.599121%,1.998901%);fill-opacity:1;" d="M 317.957031 563.582031 L 397.195313 563.582031 L 397.195313 484.34375 L 317.957031 484.34375 Z M 317.957031 563.582031 "/>
<path style=" stroke:none;fill-rule:nonzero;fill:rgb(1.199341%,1.599121%,1.998901%);fill-opacity:1;" d="M 397.195313 484.34375 L 476.4375 484.34375 L 476.4375 405.105469 L 397.195313 405.105469 Z M 397.195313 484.34375 "/>
<path style=" stroke:none;fill-rule:nonzero;fill:rgb(1.199341%,1.599121%,1.998901%);fill-opacity:1;" d="M 476.4375 405.105469 L 558.652344 405.105469 L 558.652344 322.894531 L 476.4375 322.894531 Z M 476.4375 405.105469 "/>
<path style=" stroke:none;fill-rule:nonzero;fill:rgb(1.199341%,1.599121%,1.998901%);fill-opacity:1;" d="M 558.652344 322.894531 L 637.890625 322.894531 L 637.890625 243.65625 L 558.652344 243.65625 Z M 558.652344 322.894531 "/>
<path style=" stroke:none;fill-rule:nonzero;fill:rgb(1.199341%,1.599121%,1.998901%);fill-opacity:1;" d="M 636.878906 243.660156 L 718.125 243.660156 L 718.125 161.449219 L 636.878906 161.449219 Z M 636.878906 243.660156 "/>
<path style=" stroke:none;fill-rule:nonzero;fill:rgb(1.199341%,1.599121%,1.998901%);fill-opacity:1;" d="M 238.714844 725.53125 L 317.957031 725.53125 L 317.957031 566.535156 L 238.714844 566.535156 Z M 238.714844 725.53125 "/>
<path style=" stroke:none;fill-rule:nonzero;fill:rgb(1.199341%,1.599121%,1.998901%);fill-opacity:1;" d="M 718.125 161.449219 L 878.589844 161.449219 L 878.589844 79.242188 L 718.125 79.242188 Z M 718.125 161.449219 "/>
<g clip-path="url(#clip1)" clip-rule="nonzero">
<path style=" stroke:none;fill-rule:nonzero;fill:rgb(1.199341%,1.599121%,1.998901%);fill-opacity:1;" d="M 878.589844 0 L 1201.5 0 L 1201.5 82.210938 L 1281.730469 82.210938 L 1281.730469 402.132813 L 1201.5 402.132813 L 1201.5 243.660156 L 1121.261719 243.660156 L 1121.261719 161.449219 L 1041.53125 161.449219 L 1041.03125 79.238281 L 878.589844 79.238281 "/>
</g>
<path style=" stroke:none;fill-rule:nonzero;fill:rgb(1.199341%,1.599121%,1.998901%);fill-opacity:1;" d="M 1120.269531 563.582031 L 1201.492188 563.582031 L 1201.492188 402.132813 L 1120.269531 402.132813 Z M 1120.269531 563.582031 "/>
<path style=" stroke:none;fill-rule:nonzero;fill:rgb(1.199341%,1.599121%,1.998901%);fill-opacity:1;" d="M 801.328125 885.496094 L 880.570313 885.496094 L 880.570313 806.257813 L 801.328125 806.257813 Z M 801.328125 885.496094 "/>
<path style=" stroke:none;fill-rule:nonzero;fill:rgb(1.199341%,1.599121%,1.998901%);fill-opacity:1;" d="M 880.570313 806.742188 L 959.808594 806.742188 L 959.808594 724.046875 L 880.570313 724.046875 Z M 880.570313 806.742188 "/>
<path style=" stroke:none;fill-rule:nonzero;fill:rgb(1.199341%,1.599121%,1.998901%);fill-opacity:1;" d="M 959.808594 724.050781 L 1039.050781 724.050781 L 1039.050781 644.8125 L 959.808594 644.8125 Z M 959.808594 724.050781 "/>
<path style=" stroke:none;fill-rule:nonzero;fill:rgb(1.199341%,1.599121%,1.998901%);fill-opacity:1;" d="M 1039.050781 645.777344 L 1122.253906 645.777344 L 1122.253906 562.601563 L 1039.050781 562.601563 Z M 1039.050781 645.777344 "/>
<path style=" stroke:none;fill-rule:nonzero;fill:rgb(1.199341%,1.599121%,1.998901%);fill-opacity:1;" d="M 557.660156 1043.972656 L 718.125 1043.972656 L 718.125 964.734375 L 557.660156 964.734375 Z M 557.660156 1043.972656 "/>
<path style=" stroke:none;fill-rule:nonzero;fill:rgb(1.199341%,1.599121%,1.998901%);fill-opacity:1;" d="M 159.472656 1043.972656 L 238.714844 1043.972656 L 238.714844 725.027344 L 159.472656 725.027344 Z M 159.472656 1043.972656 "/>
<path style=" stroke:none;fill-rule:nonzero;fill:rgb(1.199341%,1.599121%,1.998901%);fill-opacity:1;" d="M 159.472656 1205.417969 L 238.714844 1205.417969 L 238.714844 1126.179688 L 159.472656 1126.179688 Z M 159.472656 1205.417969 "/>
<path style=" stroke:none;fill-rule:nonzero;fill:rgb(1.199341%,1.599121%,1.998901%);fill-opacity:1;" d="M 77.261719 1126.179688 L 159.472656 1126.179688 L 159.472656 1044.222656 L 77.261719 1044.222656 Z M 77.261719 1126.179688 "/>
<path style=" stroke:none;fill-rule:nonzero;fill:rgb(1.199341%,1.599121%,1.998901%);fill-opacity:1;" d="M 238.714844 1126.179688 L 559.640625 1126.179688 L 559.640625 1044.222656 L 238.714844 1044.222656 Z M 238.714844 1126.179688 "/>
<g clip-path="url(#clip2)" clip-rule="nonzero">
<path style=" stroke:none;fill-rule:nonzero;fill:rgb(1.199341%,1.599121%,1.998901%);fill-opacity:1;" d="M 0 1125.949219 L 77.792969 1125.949219 L 77.792969 1205.339844 L 159.472656 1205.339844 L 159.472656 1288.640625 L 0 1288.640625 L 0 1202.253906 "/>
</g>
<path style=" stroke:none;fill-rule:nonzero;fill:rgb(1.199341%,1.599121%,1.998901%);fill-opacity:1;" d="M 719.113281 964.734375 L 801.328125 964.734375 L 801.328125 885.496094 L 719.113281 885.496094 Z M 719.113281 964.734375 "/>
</g>
</svg>
