<?xml version="1.0" encoding="utf-8"?>
<!-- Generator: Adobe Illustrator 16.0.0, SVG Export Plug-In . SVG Version: 6.00 Build 0)  -->
<!DOCTYPE svg PUBLIC "-//W3C//DTD SVG 1.1//EN" "http://www.w3.org/Graphics/SVG/1.1/DTD/svg11.dtd">
<svg version="1.1" id="Capa_1" xmlns="http://www.w3.org/2000/svg" xmlns:xlink="http://www.w3.org/1999/xlink"
	 viewBox="0 0 64 64" enable-background="new 0 0 64 64" xml:space="preserve">
<g>
	<g>
		<path fill="#FAF1D8" d="M17,7c0,0,0-2,2-2h31c0,0,2,0,2,2s0,48,0,48s0,8-8,8H19c0,0-2,0-2-2S17,7,17,7z"/>
	</g>
	<g>
		<path fill="#AEAEAE" d="M19,11c0,0,0-2,2-2h25c0,0,2,0,2,2s0,16,0,16s0,6-6,6H21c0,0-2,0-2-2S19,11,19,11z"/>
	</g>
	<g>
		<rect x="23" y="13" fill="#5FDB76" width="20" height="17"/>
	</g>
	<g>
		<circle fill="#FF6A8C" cx="39.5" cy="44.5" r="2.5"/>
	</g>
	<g>
		<circle fill="#FF6A8C" cx="45.5" cy="41.5" r="2.5"/>
	</g>
	<line fill="none" stroke="#3D3C3E" stroke-miterlimit="10" x1="16" y1="6.5" x2="49" y2="6.5"/>
	<rect x="20" y="4" fill="#3D3C3E" width="1" height="2"/>
	<rect x="44" y="4" fill="#3D3C3E" width="1" height="2"/>

		<line fill="none" stroke="#3D3C3E" stroke-linecap="round" stroke-linejoin="round" stroke-miterlimit="10" x1="36.5" y1="54.5" x2="38.5" y2="58.5"/>

		<line fill="none" stroke="#3D3C3E" stroke-linecap="round" stroke-linejoin="round" stroke-miterlimit="10" x1="38.5" y1="53.5" x2="40.5" y2="57.5"/>

		<line fill="none" stroke="#3D3C3E" stroke-linecap="round" stroke-linejoin="round" stroke-miterlimit="10" x1="40.5" y1="52.5" x2="42.5" y2="56.5"/>

		<line fill="none" stroke="#3D3C3E" stroke-linecap="round" stroke-linejoin="round" stroke-miterlimit="10" x1="42.5" y1="51.5" x2="44.5" y2="55.5"/>

		<line fill="none" stroke="#3D3C3E" stroke-linecap="round" stroke-linejoin="round" stroke-miterlimit="10" x1="44.5" y1="50.5" x2="46.5" y2="54.5"/>
	<line fill="none" stroke="#3D3C3E" stroke-linecap="round" stroke-miterlimit="10" x1="25.5" y1="52.5" x2="29.5" y2="50.5"/>
	<line fill="none" stroke="#3D3C3E" stroke-linecap="round" stroke-miterlimit="10" x1="30.5" y1="52.5" x2="34.5" y2="50.5"/>
	<g>
		<path fill="#3D3C3E" d="M47.992,4C48.453,4.013,49,4.197,49,5v47.997C48.998,53.283,48.883,60,42,60H17.012
			C16.55,59.988,16,59.806,16,59V5.012C16.012,4.55,16.195,4,17,4H47.992 M48,3H17c-2,0-2,2-2,2s0,52,0,54s2,2,2,2h25c8,0,8-8,8-8
			s0-46,0-48S48,3,48,3L48,3z"/>
	</g>
	<g>
		<path fill="#3D3C3E" d="M44.992,9C45.453,9.013,46,9.197,46,10v16c0,0.204-0.057,5-5,5H20.012C19.55,30.988,19,30.805,19,30
			V10.012C19.012,9.55,19.195,9,20,9H44.992 M45,8H20c-2,0-2,2-2,2s0,18,0,20s2,2,2,2h21c6,0,6-6,6-6s0-14,0-16S45,8,45,8L45,8z"/>
	</g>
	<g>
		<path fill="#3D3C3E" d="M41,13v15H23V13H41 M42,12H22v17h20V12L42,12z"/>
	</g>
	<g>
		<polygon fill="#AEAEAE" points="21,49 21,46 18,46 18,41 21,41 21,38 26,38 26,41 29,41 29,46 26,46 26,49 		"/>
	</g>
	<g>
		<path fill="#3D3C3E" d="M24,38v3h3v3h-3v3h-3v-3h-3v-3h3v-3H24 M24,37h-3c-0.552,0-1,0.447-1,1v2h-2c-0.552,0-1,0.447-1,1v3
			c0,0.553,0.448,1,1,1h2v2c0,0.553,0.448,1,1,1h3c0.552,0,1-0.447,1-1v-2h2c0.552,0,1-0.447,1-1v-3c0-0.553-0.448-1-1-1h-2v-2
			C25,37.447,24.552,37,24,37L24,37z"/>
	</g>
	<circle fill="#3D3C3E" cx="20.5" cy="15.5" r="0.5"/>
	<g>
		<path fill="#3D3C3E" d="M38.5,42c0.827,0,1.5,0.673,1.5,1.5S39.327,45,38.5,45S37,44.327,37,43.5S37.673,42,38.5,42 M38.5,41
			c-1.381,0-2.5,1.119-2.5,2.5s1.119,2.5,2.5,2.5s2.5-1.119,2.5-2.5S39.881,41,38.5,41L38.5,41z"/>
	</g>
	<g>
		<path fill="#3D3C3E" d="M44.5,39c0.827,0,1.5,0.673,1.5,1.5S45.327,42,44.5,42S43,41.327,43,40.5S43.673,39,44.5,39 M44.5,38
			c-1.381,0-2.5,1.119-2.5,2.5s1.119,2.5,2.5,2.5s2.5-1.119,2.5-2.5S45.881,38,44.5,38L44.5,38z"/>
	</g>
</g>
</svg>
